<svg id="Barva1" xmlns="http://www.w3.org/2000/svg" xmlns:xlink="http://www.w3.org/1999/xlink" viewBox="0 0 256 256"><defs><style>.cls-1,.cls-2,.cls-3,.cls-4,.cls-5{stroke:#fff;stroke-miterlimit:10;}.cls-1,.cls-4,.cls-5{stroke-width:4px;}.cls-1{fill:url(#Nové_políčko_přechodu_3);}.cls-2,.cls-4{fill:#fff;}.cls-2{stroke-width:3.5px;}.cls-3,.cls-5{fill:none;}.cls-3{stroke-width:3px;}</style><linearGradient id="Nové_políčko_přechodu_3" x1="46.68" y1="209.32" x2="209.32" y2="46.68" gradientUnits="userSpaceOnUse"><stop offset="0" stop-color="#002e33"/><stop offset="0.14" stop-color="#001e21"/><stop offset="0.36" stop-color="#000809"/><stop offset="0.5"/><stop offset="0.64" stop-color="#000809"/><stop offset="0.86" stop-color="#001e21"/><stop offset="1" stop-color="#002e33"/></linearGradient></defs><g id="Vrstva_13" data-name="Vrstva 13"><circle class="cls-1" cx="128" cy="128" r="115"/><g id="I"><polygon class="cls-2" points="182 172 193 172 211 154 200 154 182 172"/><polygon class="cls-3" points="222 143 211 143 206 148 217 148 222 143"/></g><polygon id="K" class="cls-2" points="195 143 185 143 155 157 178 134 168 134 130 172 139 172 151 160 163 172 171 172 159 160 195 143"/><polygon id="O" class="cls-2" points="97 163 109 151 126 151 114 163 97 163 88 172 117 172 146 143 105 143 86 163 97 163"/><polygon class="cls-4" points="60 84 38 106 100 106 34 172 65 172 131 106 150 106 172 84 60 84"/><polygon class="cls-5" points="179 106 201 84 169 84 147 106 179 106"/></g></svg>